<svg width="1180" height="820" viewBox="0 0 1180 820" fill="none" xmlns="http://www.w3.org/2000/svg">
  <rect width="1180" height="820" rx="44" fill="#F8FAFC"/>
  <rect x="36" y="36" width="1108" height="748" rx="32" fill="white" stroke="#E2E8F0"/>
  <rect x="68" y="74" width="214" height="674" rx="24" fill="#F8FAFC" stroke="#E2E8F0"/>
  <circle cx="104" cy="110" r="18" fill="#2563EB"/>
  <rect x="132" y="98" width="98" height="13" rx="6.5" fill="#0F172A"/>
  <rect x="96" y="172" width="166" height="42" rx="14" fill="#2563EB"/>
  <rect x="96" y="235" width="144" height="16" rx="8" fill="#CBD5E1"/>
  <rect x="96" y="277" width="126" height="16" rx="8" fill="#CBD5E1"/>
  <rect x="96" y="319" width="154" height="16" rx="8" fill="#CBD5E1"/>
  <rect x="96" y="361" width="116" height="16" rx="8" fill="#CBD5E1"/>
  <rect x="326" y="78" width="788" height="94" rx="24" fill="#F8FAFC" stroke="#E2E8F0"/>
  <rect x="358" y="108" width="218" height="18" rx="9" fill="#0F172A"/>
  <rect x="358" y="138" width="148" height="12" rx="6" fill="#94A3B8"/>
  <rect x="954" y="106" width="78" height="38" rx="14" fill="#2563EB"/>
  <rect x="1046" y="106" width="54" height="38" rx="14" fill="#E0F2FE"/>
  <rect x="326" y="204" width="238" height="150" rx="24" fill="white" stroke="#E2E8F0"/>
  <rect x="590" y="204" width="238" height="150" rx="24" fill="white" stroke="#E2E8F0"/>
  <rect x="854" y="204" width="260" height="150" rx="24" fill="white" stroke="#E2E8F0"/>
  <circle cx="374" cy="252" r="24" fill="#DBEAFE"/>
  <circle cx="638" cy="252" r="24" fill="#CFFAFE"/>
  <circle cx="902" cy="252" r="24" fill="#D1FAE5"/>
  <rect x="354" y="294" width="104" height="16" rx="8" fill="#0F172A"/>
  <rect x="618" y="294" width="118" height="16" rx="8" fill="#0F172A"/>
  <rect x="882" y="294" width="128" height="16" rx="8" fill="#0F172A"/>
  <rect x="354" y="324" width="162" height="12" rx="6" fill="#94A3B8"/>
  <rect x="618" y="324" width="154" height="12" rx="6" fill="#94A3B8"/>
  <rect x="882" y="324" width="180" height="12" rx="6" fill="#94A3B8"/>
  <rect x="326" y="386" width="520" height="362" rx="28" fill="white" stroke="#E2E8F0"/>
  <rect x="358" y="424" width="160" height="18" rx="9" fill="#0F172A"/>
  <path d="M370 675C425 576 472 608 525 532C576 459 626 492 671 444C711 402 755 425 812 398" stroke="#2563EB" stroke-width="10" stroke-linecap="round"/>
  <path d="M370 690C428 656 471 666 530 620C589 574 631 612 692 554C735 513 770 526 812 494" stroke="#06B6D4" stroke-width="10" stroke-linecap="round"/>
  <rect x="888" y="386" width="226" height="362" rx="28" fill="#0F172A"/>
  <rect x="920" y="426" width="90" height="14" rx="7" fill="white"/>
  <rect x="920" y="466" width="162" height="82" rx="18" fill="#1E293B"/>
  <rect x="940" y="492" width="86" height="12" rx="6" fill="#06B6D4"/>
  <rect x="940" y="518" width="122" height="10" rx="5" fill="#94A3B8"/>
  <rect x="920" y="574" width="162" height="82" rx="18" fill="#1E293B"/>
  <rect x="940" y="600" width="104" height="12" rx="6" fill="#10B981"/>
  <rect x="940" y="626" width="96" height="10" rx="5" fill="#94A3B8"/>
</svg>
